<svg width="34" height="34" viewBox="0 0 34 34" fill="none" xmlns="http://www.w3.org/2000/svg">
<path fill-rule="evenodd" clip-rule="evenodd" d="M9.91927 2.83398H24.0859C27.998 2.83398 31.1693 6.0053 31.1693 9.91732V24.084C31.1693 27.996 27.998 31.1673 24.0859 31.1673H9.91927C6.00725 31.1673 2.83594 27.996 2.83594 24.084V9.91732C2.83594 6.0053 6.00725 2.83398 9.91927 2.83398ZM23.7943 9.20898C23.7943 8.6567 24.242 8.20898 24.7943 8.20898H24.806C25.3583 8.20898 25.806 8.6567 25.806 9.20898C25.806 9.76127 25.3583 10.209 24.806 10.209H24.7943C24.242 10.209 23.7943 9.76127 23.7943 9.20898ZM17.7484 12.3232C16.7775 12.1792 15.7858 12.345 14.9146 12.7971C14.0433 13.2492 13.3368 13.9645 12.8955 14.8413C12.4542 15.718 12.3005 16.7116 12.4565 17.6807C12.6124 18.6498 13.07 19.5451 13.7641 20.2392C14.4581 20.9333 15.3534 21.3908 16.3225 21.5467C17.2916 21.7027 18.2852 21.5491 19.162 21.1078C20.0388 20.6665 20.7541 19.9599 21.2061 19.0887C21.6582 18.2174 21.8241 17.2258 21.6801 16.2548C21.5332 15.2644 21.0717 14.3475 20.3637 13.6395C19.6557 12.9315 18.7388 12.47 17.7484 12.3232ZM13.9934 11.0219C15.2381 10.376 16.6547 10.1391 18.0418 10.3448C19.4567 10.5546 20.7665 11.2139 21.7779 12.2253C22.7893 13.2367 23.4486 14.5466 23.6584 15.9615C23.8641 17.3485 23.6272 18.7652 22.9814 20.0098C22.3355 21.2545 21.3137 22.2638 20.0612 22.8942C18.8086 23.5247 17.3892 23.7441 16.0048 23.5213C14.6203 23.2986 13.3414 22.6449 12.3498 21.6534C11.3583 20.6619 10.7047 19.3829 10.4819 17.9985C10.2591 16.614 10.4786 15.1946 11.109 13.9421C11.7394 12.6895 12.7488 11.6677 13.9934 11.0219Z" fill="white" fill-opacity="0.5"/>
</svg>
