<svg width="471" height="76" viewBox="0 0 471 76" fill="none" xmlns="http://www.w3.org/2000/svg">
<path d="M74.2982 44.6716C74.2259 42.6565 74.4103 40.4881 73.9047 38.3596C73.5923 37.0436 73.0946 35.9087 71.5054 35.8225C70.142 35.7483 69.2293 36.441 68.9129 38.2742C68.1656 42.6046 68.199 46.9757 68.8732 51.3108C69.1522 53.1121 70.1118 53.8591 71.4577 53.7849C73.0294 53.6979 73.5661 52.5798 73.8809 51.2597C74.3881 49.1337 74.2482 46.9661 74.2982 44.6716ZM68.0758 56.9405C68.0758 58.2764 68.0106 59.3131 68.0933 60.3379C68.1823 61.4328 67.9192 61.9013 66.6885 61.8351C64.5897 61.7225 62.4758 61.7265 60.3762 61.8343C59.1615 61.8965 58.95 61.4512 58.9532 60.3411C58.9889 47.3172 58.9762 34.2934 58.9762 21.2696C58.9762 19.2058 59.0207 17.1404 58.9563 15.0781C58.9269 14.1364 59.1662 13.7932 60.1639 13.8243C62.5116 13.8962 64.8648 13.9002 67.2116 13.8228C68.2507 13.7884 68.5265 14.1109 68.517 15.1348C68.4677 20.2457 68.494 25.3574 68.494 30.469V31.7188C68.9487 31.8896 69.0322 31.5776 69.1379 31.4092C70.7995 28.7476 73.1622 27.4483 76.2993 27.7875C79.3004 28.1123 81.0669 30.0836 81.8913 32.7539C84.4766 41.1258 84.8113 49.5646 81.5574 57.8279C79.8974 62.0442 75.7714 63.5717 72.0746 61.8159C70.677 61.1527 69.8494 60.1631 68.0758 56.9405Z" fill="white"/>
<path d="M10.2834 40.7214C11.4226 38.5315 12.565 36.3431 13.7019 34.1516C14.5136 32.5866 15.342 31.0295 16.1171 29.4461C16.5154 28.6329 16.9741 28.2115 17.9965 28.2458C20.8315 28.3408 23.6712 28.2786 26.7908 28.2786C25.6953 30.2785 24.6952 32.1373 23.6625 33.9768C22.1297 36.711 20.6383 39.4724 18.9958 42.1388C18.3542 43.1794 18.4989 43.9727 18.9879 44.9424C21.5239 49.9687 24.0258 55.0109 26.5324 60.0524C26.7852 60.5608 26.9911 61.0947 27.2988 61.801C24.0067 61.801 20.8943 61.7946 17.781 61.8066C17.2237 61.809 17.0449 61.4506 16.8557 61.0316C14.8817 56.659 12.6692 52.398 10.863 47.9488C10.6881 47.5186 10.6078 47.019 9.95665 46.7804C10.4376 51.3837 10.2643 55.884 10.3597 60.3796C10.3852 61.5879 9.99481 61.8704 8.86909 61.8281C6.67012 61.7451 4.4632 61.7467 2.26264 61.8281C1.20132 61.8672 0.975536 61.4929 0.978716 60.4937C1.01211 50.1259 0.999386 39.7581 0.999386 29.3895C0.999386 24.6728 1.0288 19.9554 0.977127 15.2388C0.965202 14.1997 1.13374 13.7607 2.31273 13.815C4.60869 13.922 6.91339 13.8717 9.21253 13.8326C9.98289 13.819 10.3581 13.9547 10.3462 14.8589C10.2476 22.7678 10.5004 30.68 10.149 38.5865C10.1188 39.2633 10.0171 39.9361 9.94791 40.6104C10.06 40.6472 10.1721 40.6847 10.2834 40.7214Z" fill="white"/>
<path d="M248.1 32.8946C249.735 30.7214 251.383 28.9361 253.941 28.146C258.028 26.8826 261.751 29.043 262.581 33.2369C262.953 35.1188 263.156 37.0158 263.152 38.9408C263.136 46.07 263.124 53.1992 263.17 60.3285C263.177 61.4314 262.975 61.8919 261.747 61.8336C259.498 61.7267 257.24 61.7419 254.99 61.8288C253.889 61.8711 253.582 61.5543 253.592 60.4394C253.648 54.441 253.624 48.4427 253.613 42.4443C253.611 41.3638 253.611 40.2728 253.472 39.2058C253.346 38.2377 253.143 37.2082 251.843 37.0964C250.501 36.9807 249.4 37.3327 248.872 38.7022C248.515 39.6303 248.461 40.612 248.461 41.6016C248.465 47.8449 248.434 54.0899 248.481 60.3332C248.489 61.445 248.272 61.8903 247.052 61.8328C244.804 61.7275 242.546 61.753 240.295 61.8256C239.255 61.8592 238.855 61.6501 238.859 60.4761C238.909 50.1514 238.899 39.8259 238.87 29.5011C238.867 28.5626 239.082 28.2186 240.084 28.2529C242.384 28.3312 244.688 28.3248 246.988 28.2553C247.93 28.2274 248.169 28.553 248.117 29.4333C248.05 30.5833 248.1 31.7405 248.1 32.8946Z" fill="white"/>
<path d="M44.4418 57.2751C43.4727 58.0572 42.8916 59.0077 42.0902 59.7794C39.6321 62.1473 36.7709 62.7945 33.575 61.6988C31.1383 60.8632 30.3473 58.7276 29.844 56.4618C29.4155 54.5281 29.4823 52.5504 29.4751 50.5888C29.4489 43.6607 29.4918 36.7325 29.4378 29.806C29.429 28.6432 29.6159 28.1716 30.9165 28.2434C33.1608 28.3679 35.4194 28.3344 37.6676 28.253C38.7091 28.2155 38.9667 28.5291 38.9587 29.5586C38.9102 35.897 38.9317 42.2345 38.9396 48.5728C38.9404 49.3573 38.9682 50.1458 39.0469 50.9263C39.1527 51.971 39.5398 52.8768 40.7268 53.0141C41.9376 53.153 42.9504 52.7539 43.5363 51.5935C44.0849 50.5066 44.1008 49.323 44.1024 48.1443C44.1071 42.003 44.1326 35.8611 44.0817 29.7206C44.0721 28.5986 44.3146 28.1931 45.5119 28.2474C47.8078 28.3527 50.1126 28.312 52.4117 28.2602C53.2647 28.241 53.6034 28.415 53.6002 29.3759C53.566 39.7924 53.57 50.2081 53.5954 60.6238C53.597 61.4857 53.4118 61.8488 52.4665 61.8233C50.1197 61.761 47.7689 61.7746 45.4197 61.8185C44.6334 61.8337 44.3973 61.5535 44.4291 60.7978C44.4784 59.6254 44.4418 58.449 44.4418 57.2751Z" fill="white"/>
<path d="M174.428 32.8787C176.003 30.85 177.527 29.0663 179.962 28.2483C184.176 26.8341 187.945 28.8836 188.877 33.2211C189.217 34.8021 189.423 36.411 189.423 38.0383C189.423 45.5067 189.401 52.9751 189.454 60.4427C189.462 61.5473 189.193 61.8753 188.082 61.8306C185.835 61.7396 183.577 61.7244 181.33 61.8346C180.102 61.8944 179.902 61.4363 179.911 60.3366C179.96 54.3422 179.943 48.3479 179.926 42.3535C179.923 41.2745 179.843 40.1939 179.748 39.1189C179.661 38.1365 179.369 37.2426 178.198 37.1102C177.01 36.9769 175.922 37.1804 175.337 38.3959C174.907 39.2873 174.725 40.2378 174.728 41.2418C174.74 47.5793 174.7 53.9184 174.754 60.256C174.763 61.43 174.539 61.8968 173.258 61.8338C171.013 61.7236 168.756 61.7707 166.506 61.8186C165.61 61.8378 165.223 61.6694 165.227 60.6215C165.269 50.2058 165.259 39.7885 165.239 29.3728C165.237 28.5931 165.368 28.2347 166.263 28.2571C168.659 28.3185 171.06 28.3074 173.457 28.2611C174.232 28.2467 174.482 28.4821 174.444 29.2587C174.383 30.463 174.428 31.6721 174.428 32.8787Z" fill="white"/>
<path d="M102.996 49.2062C102.996 48.3706 103.003 47.5342 102.992 46.6986C102.987 46.3778 103.069 46.0386 102.524 45.9851C100.298 45.7649 96.6351 48.5502 96.2757 50.7776C95.9283 52.9292 97.1136 54.5142 98.9946 54.4152C101.388 54.2891 102.997 52.6108 102.997 50.2389C102.997 49.8949 102.997 49.5502 102.996 49.2062ZM102.949 58.1367C102.484 58.681 102.149 59.0824 101.803 59.475C99.28 62.3377 96.1692 63.3194 92.5472 62.1183C88.9053 60.9108 87.5053 57.9547 87.2231 54.4001C86.6538 47.2349 90.2083 42.7019 97.6988 40.9182C99.1218 40.579 100.565 40.2877 102.015 40.1177C102.852 40.0203 103.052 39.7043 103.048 38.9174C103.035 36.1848 101.435 34.7498 98.9731 35.3596C98.3538 35.5128 97.6288 35.7402 97.4603 36.3891C97.0874 37.8168 96.0698 37.7219 94.9799 37.6995C93.1697 37.6628 91.3539 37.6213 89.5468 37.7147C88.4481 37.7713 88.2128 37.3803 88.3686 36.3763C89.1167 31.5591 91.9295 28.6366 96.7106 27.785C99.4899 27.2902 102.284 27.2367 104.985 28.0923C109.512 29.5256 112.003 33.1944 112.129 38.6069C112.239 43.3714 112.212 48.14 112.237 52.9061C112.25 55.5102 112.171 58.1167 112.435 60.7129C112.502 61.3705 112.51 61.839 111.598 61.8198C109.151 61.7703 106.702 61.7807 104.254 61.8182C103.529 61.8294 103.345 61.5133 103.299 60.8677C103.238 60.0122 103.085 59.1622 102.949 58.1367Z" fill="white"/>
<path d="M150.746 49.2282C150.746 45.4461 150.495 45.3 147.098 47.1148C146.925 47.2066 146.743 47.284 146.578 47.387C144.804 48.4907 143.838 50.0198 144.131 52.181C144.33 53.6503 145.443 54.529 146.894 54.4029C149.317 54.1938 150.746 52.6567 150.746 50.2609V49.2282ZM150.685 58.161C148.924 60.5082 147.037 62.1953 144.338 62.5121C139.276 63.1067 135.539 59.9647 135.035 54.7915C134.32 47.4572 137.908 42.7007 145.54 40.9098C146.963 40.5762 148.411 40.3464 149.852 40.0926C150.29 40.0152 150.671 40.0343 150.799 39.4206C151.369 36.7087 149.323 34.6593 146.696 35.3727C146.017 35.5571 145.287 35.8931 145.142 36.5866C144.902 37.7255 144.19 37.7151 143.316 37.7007C141.31 37.6672 139.3 37.6345 137.297 37.7135C136.331 37.7526 136.174 37.403 136.222 36.5355C136.444 32.589 139.146 29.1126 143.225 28.0655C146.572 27.206 149.988 27.1118 153.335 28.2834C156.683 29.455 158.559 31.9282 159.438 35.2618C159.966 37.2658 160.07 39.3168 160.087 41.387C160.139 47.9185 159.881 54.4532 160.248 60.9806C160.288 61.6957 160.038 61.8138 159.443 61.8106C156.997 61.7955 154.549 61.7891 152.103 61.8154C151.506 61.8218 151.23 61.655 151.166 61.0205C151.079 60.1562 150.884 59.3039 150.685 58.161Z" fill="white"/>
<path d="M209.047 49.2319C209.047 45.4099 208.798 45.2775 205.283 47.1386C204.67 47.4634 204.111 47.8441 203.622 48.3293C202.706 49.2399 202.283 50.3572 202.303 51.6429C202.333 53.6214 203.681 54.7051 205.605 54.3093C208.276 53.7594 209.047 52.6214 209.047 49.2319ZM208.985 58.168C207.747 59.6524 206.632 60.9325 205.086 61.7131C199.593 64.4872 193.773 60.8799 193.245 54.4953C192.562 46.2336 197.301 42.6342 203.803 40.9136C205.215 40.5401 206.668 40.2983 208.117 40.1083C208.859 40.011 209.092 39.7532 209.106 39.0086C209.16 36.244 207.464 34.7093 204.978 35.3709C204.413 35.521 203.704 35.7237 203.567 36.3103C203.186 37.9383 201.99 37.7029 200.842 37.6933C199.178 37.6798 197.508 37.6055 195.851 37.7165C194.565 37.8035 194.26 37.3693 194.475 36.1507C195.319 31.3798 198.072 28.5793 202.845 27.7708C205.125 27.3846 207.404 27.3527 209.697 27.7541C214.141 28.5306 217.21 31.7317 217.94 36.3502C218.224 38.1522 218.281 39.9591 218.305 41.7747C218.39 48.1114 218.079 54.4529 218.508 60.7841C218.573 61.733 218.191 61.8256 217.433 61.8152C215.133 61.7841 212.832 61.7753 210.532 61.8208C209.758 61.836 209.369 61.6644 209.342 60.8064C209.315 60.002 209.132 59.2023 208.985 58.168Z" fill="white"/>
<path d="M280.233 41.3375H282.721C283.117 41.3367 283.521 41.3758 283.517 40.774C283.508 39.2553 283.544 37.7326 282.772 36.3439C281.967 34.893 280.186 34.3655 278.735 35.1508C277.409 35.8682 276.129 39.2776 276.899 40.8403C277.445 41.9488 278.817 41.1276 279.795 41.3343C279.936 41.3646 280.087 41.3383 280.233 41.3375ZM284.715 47.3366C282.513 47.3366 280.309 47.3893 278.108 47.3135C277.115 47.2792 276.845 47.6343 276.893 48.5617C276.961 49.8817 276.844 51.2129 277.344 52.485C277.905 53.9096 279.007 54.5249 280.449 54.465C281.935 54.402 282.969 53.5824 283.187 52.086C283.356 50.9327 283.816 50.6071 284.97 50.6694C287.117 50.7859 289.276 50.7364 291.428 50.6861C292.284 50.6654 292.452 50.8904 292.372 51.7659C291.733 58.7986 287.713 62.5168 280.633 62.5791C276.949 62.6118 273.511 62.0037 270.911 59.0628C268.838 56.718 268.059 53.8058 267.724 50.8266C267.19 46.0852 267.128 41.3239 268.225 36.6232C269.921 29.3535 274.82 26.9753 281.482 27.5355C288.736 28.1461 291.207 33.1189 292.114 38.2002C292.591 40.877 292.621 43.5665 292.59 46.2704C292.58 47.1092 292.287 47.3677 291.47 47.3518C289.219 47.3071 286.967 47.3366 284.715 47.3366Z" fill="white"/>
<path d="M131.039 61.8032C127.727 61.8032 124.653 61.7824 121.58 61.8191C120.867 61.8271 120.697 61.4416 120.498 60.8934C119.481 58.0777 119.304 55.132 119.248 52.1935C119.161 47.575 119.186 42.9542 119.245 38.3349C119.258 37.2822 118.955 37.0317 117.943 37.054C115.434 37.1099 115.433 37.0572 115.433 34.5073C115.433 32.7875 115.472 31.066 115.416 29.3478C115.389 28.5194 115.635 28.2672 116.481 28.256C119.219 28.2193 119.219 28.1802 119.219 25.4029C119.219 22.8466 119.244 20.2904 119.203 17.7358C119.191 16.9856 119.373 16.7038 120.173 16.7174C122.766 16.7645 125.362 16.7653 127.956 16.7174C128.746 16.7022 128.934 16.9696 128.925 17.7198C128.89 20.8642 128.946 24.011 128.888 27.1547C128.871 28.0669 129.115 28.3071 130.023 28.3031C132.778 28.2927 132.778 28.3366 132.778 31.1586C132.779 32.7803 132.738 34.4036 132.797 36.0229C132.828 36.8776 132.522 37.0883 131.703 37.1003C128.91 37.1434 128.888 37.1769 128.916 40.0635C128.958 44.5344 128.817 49.0052 129.05 53.4768C129.197 56.2956 129.617 59.0235 131.039 61.8032Z" fill="white"/>
<path d="M310.804 61.7973C307.437 61.7973 304.277 61.8085 301.117 61.7894C300.326 61.7846 300.304 61.0487 300.128 60.5276C299.256 57.9378 299.089 55.2419 299.067 52.542C299.029 47.8262 299.008 43.1088 299.084 38.3937C299.103 37.2357 298.746 37.025 297.693 37.0538C295.199 37.1216 295.197 37.0673 295.197 34.5207C295.197 32.8016 295.232 31.081 295.182 29.3627C295.158 28.5782 295.314 28.2622 296.201 28.2534C299.052 28.2254 299.052 28.1815 299.052 25.3739C299.052 22.8193 299.081 20.2646 299.034 17.7108C299.021 16.9414 299.23 16.702 300.012 16.7172C302.556 16.7651 305.102 16.7698 307.645 16.7156C308.519 16.6972 308.702 17.0228 308.692 17.8249C308.653 20.8704 308.714 23.9166 308.655 26.9621C308.636 27.9262 308.797 28.3308 309.896 28.3084C312.552 28.2526 312.553 28.3148 312.553 30.9589C312.553 32.6292 312.52 34.3004 312.567 35.9692C312.588 36.7489 312.427 37.0857 311.538 37.104C308.675 37.1631 308.673 37.2046 308.678 40.1463C308.683 43.7816 308.689 47.4168 308.707 51.052C308.726 54.6865 308.958 58.2858 310.804 61.7973Z" fill="white"/>
<path d="M417.994 61.9474C417.91 61.7654 417.901 61.7072 417.869 61.684C417.752 61.5994 417.637 61.4957 417.504 61.4558C415.916 60.969 415.304 59.8995 415.721 58.305C416.547 55.1382 417.388 51.9762 418.389 48.8573C418.777 47.6474 419.315 46.8693 420.698 46.8661C421.965 46.8637 422.525 46.0473 422.568 44.863C422.652 42.598 424.098 40.6004 423.837 38.2677C423.818 38.104 423.98 37.9085 424.085 37.7449C425.108 36.1376 425.742 34.4209 425.618 32.4744C425.552 31.4577 425.998 30.7889 426.999 30.5056C431.055 29.3579 433.637 29.3946 436.194 33.211C437.539 35.219 439.122 36.6092 441.763 36.1408C442.748 35.9668 443.707 36.2773 444.576 36.7928C447.228 38.369 449.876 39.9524 452.535 41.5182C452.977 41.7792 453.171 42.0705 452.994 42.5964C452.616 43.7121 452.279 44.7895 451.236 45.5653C450.1 46.4072 449.091 47.428 448.073 48.42C446.42 50.0313 446.527 50.6937 448.545 51.8166C448.716 51.9124 448.931 51.9579 449.064 52.0887C449.584 52.6059 450.864 52.752 450.553 53.5828C450.316 54.222 449.226 53.6498 448.532 53.5668C447.036 53.388 445.501 52.6793 444.049 53.3154C440.013 55.0831 436.139 57.1869 432.467 59.6314C431.248 60.443 430.185 61.4135 428.673 61.763C427.347 62.0703 427.184 63.0543 428.144 64.0471C428.621 64.5403 429.189 64.9633 429.577 65.5156C429.904 65.9825 430.157 66.6337 429.742 67.1684C429.385 67.6281 428.835 67.3392 428.368 67.2402C428.033 67.17 427.704 67.0726 427.371 66.9904C427.076 66.9178 426.771 66.8763 426.583 67.182C426.39 67.498 426.568 67.7718 426.803 67.9505C427.812 68.7167 428.724 69.6313 429.991 70.0112C430.86 70.2713 431.53 70.1828 431.915 69.2482C432.038 68.9489 432.091 68.4397 432.509 68.5196C433.383 68.6848 434.262 69.0527 434.734 69.8093C435.158 70.4884 434.622 71.1189 434.107 71.5866C433.756 71.9066 433.168 72.067 433.416 72.7071C433.642 73.2905 434.213 73.3982 434.749 73.466C435.649 73.581 436.571 73.6025 437.078 72.6584C437.538 71.8036 438.054 72.0111 438.591 72.4892C439.469 73.2721 440.275 74.1404 441.186 74.8802C442.651 76.0694 443.27 75.8675 443.642 74.0295C444.095 71.7853 444.864 69.676 446.079 67.7526C447.626 65.3025 449.06 62.787 450.538 60.297C451.819 58.1358 452.477 55.4016 455.343 54.5412C455.591 54.467 455.78 54.1566 455.971 53.9339C456.959 52.7799 457.951 51.6299 458.918 50.4591C459.904 49.2675 461.212 49.3306 461.943 50.6283C463.606 53.5843 465.185 56.5779 466.292 59.7998C466.434 60.2148 466.663 60.5994 466.854 60.9969C466.988 61.2738 467.16 61.522 467.51 61.4789C467.859 61.435 467.961 61.1413 468.046 60.8556C468.291 60.036 468.28 59.2076 468.121 58.3752C467.333 54.2292 466.779 50.0433 466.031 45.8893C465.657 43.8079 464.887 42.5773 462.963 41.9284C462.133 41.6483 461.188 41.2844 460.875 40.4296C460.203 38.5941 458.778 38.0274 457.072 37.6244C451.612 36.3363 445.925 36.041 440.672 33.8439C440.274 33.6763 439.777 33.4273 439.419 33.5327C437.774 34.0187 437.348 32.8032 436.702 31.7729C434.387 28.0754 432.222 24.2742 429.228 21.046C428.443 20.2 427.59 19.7786 426.501 20.0771C424.803 20.5432 423.469 19.7914 422.395 18.7052C421.224 17.5224 420.088 17.3493 418.557 17.8608C414.894 19.0875 411.216 20.2934 407.231 19.441C406.257 19.2327 405.164 19.1816 404.181 19.5927C403.358 19.9366 402.648 19.7571 401.961 19.3061C400.631 18.4323 399.149 17.9143 397.639 17.4945C394.068 16.5025 390.723 15.0516 387.804 12.7228C387.134 12.1881 386.608 12.224 386.011 12.7994C384.691 14.07 383.101 14.2807 381.371 13.9534C379.841 13.6637 378.493 14.038 377.249 15.0125C374.128 17.4578 370.961 19.8448 367.822 22.267C365.628 23.9597 363.13 25.1393 360.556 25.9876C358.896 26.5351 357.162 26.9086 355.577 27.674C354.34 28.2717 353.044 28.4513 351.727 28.417C350.165 28.3763 348.602 28.0363 347.048 28.085C343.811 28.1863 342.472 27.6006 341.39 31.0746C341.069 32.1081 340.22 32.7498 339.119 32.9573C338.428 33.0881 337.882 33.3268 337.469 34.0075C335.069 37.966 333.169 42.1631 331.411 46.4344C330.796 47.9284 329.971 49.3402 329.871 51.0129C329.84 51.5381 329.504 52.151 330.109 52.4798C330.764 52.8358 331.209 52.2795 331.606 51.8597C333.488 49.8653 334.855 47.5437 335.67 44.9316C336.001 43.8717 336.516 42.9556 337.147 42.0777C338.915 39.6164 339.865 39.6826 341.181 42.353C341.603 43.2085 342.266 44.1048 343.196 43.369C345.559 41.4999 348.819 40.1926 348.316 36.2126C348.227 35.5143 348.382 34.8942 349.108 34.464C350.794 33.4656 352.357 32.2358 354.106 31.3779C356.05 30.4234 357.923 28.7873 360.4 30.0219C360.952 30.2973 361.577 29.9972 361.982 29.512C362.607 28.7634 363.3 28.0778 363.696 27.1385C364.254 25.8113 365.26 24.8983 366.63 24.4186C368.072 23.9142 369.436 23.2335 370.688 22.3716C372.306 21.2566 373.993 20.9685 375.96 21.1218C377.53 21.2431 377.915 21.9079 377.805 23.2095C377.666 24.836 377.843 26.4489 377.962 28.0587C378.167 30.836 378.586 31.0874 381.27 30.4521C382.056 30.2653 382.848 29.8312 383.762 30.1584C383.472 30.7945 382.955 30.9349 382.524 31.0594C380.468 31.6572 379.826 33.1456 379.566 35.1272C378.949 39.8526 378.03 44.5286 376.952 49.1734C376.498 51.1239 376.395 53.0018 377.956 54.6729C378.604 55.3649 378.774 56.4774 378.323 57.4407C377.876 58.392 377.021 58.2196 376.162 58.1031C375.04 57.9498 373.905 57.8652 373.194 59.1094C372.849 59.7128 372.187 59.6186 371.596 59.5564C369.968 59.3864 368.993 58.3377 368.215 57.0225C365.88 53.0712 363.125 49.6881 358.591 47.9571C355.793 46.8893 353.534 44.8733 352.067 42.0609C351.147 40.2988 349.405 40.0585 347.688 41.1072C346.583 41.7832 345.714 42.7161 344.811 43.61C343.214 45.191 343.142 46.0178 344.055 48.076C345.73 51.8477 346.948 55.7838 347.838 59.8062C348.597 63.2411 349.588 66.5563 351.574 69.4996C351.979 70.099 352.524 70.6041 352.373 71.4653C352.276 72.0135 352.664 72.2657 353.203 72.2043C354.175 72.0926 355.021 71.7334 355.468 70.7973C355.784 70.1381 355.723 69.6137 354.921 69.261C352.498 68.1939 351.814 65.7622 353.347 63.5914C354.102 62.5204 354.572 61.3919 354.771 60.0927C355.068 58.1621 356.363 57.2563 358.299 57.5237C359.222 57.6513 360.122 57.724 361.066 57.554C362.444 57.305 365.311 59.1693 365.581 60.5236C365.768 61.4646 365.772 62.4095 364.627 63.0232C363.48 63.6377 362.538 64.5978 361.322 65.1573C360.883 65.3592 360.076 65.8308 360.606 66.4877C361.084 67.079 361.872 66.8715 362.464 66.4182C362.685 66.2474 362.778 65.9146 362.987 65.7151C363.687 65.0471 364.163 64.0312 365.18 63.8261C367.773 63.3017 369.971 61.8732 372.264 60.7104C373.356 60.1565 374.337 59.854 375.54 59.8604C377.569 59.8692 379.195 58.2284 379.113 56.3098C379.068 55.2587 379.396 54.787 380.466 54.6881C381.687 54.5748 381.677 55.4183 381.778 56.1853C381.997 57.8469 382.308 58.1254 383.94 57.7631C385.941 57.3186 387.915 56.8453 390.004 57.1382C390.625 57.2252 391.739 57.4774 391.881 56.8573C392.068 56.0392 390.881 56.238 390.368 55.8668C390.251 55.7815 390.101 55.7439 389.971 55.6769C389.161 55.2635 388.949 54.4694 388.909 53.6929C388.862 52.7974 389.732 52.878 390.292 52.6777C392.109 52.0265 394.074 52.2715 395.927 51.7456C396.73 51.5181 396.846 51.2516 396.613 50.5325C395.968 48.5533 395.137 46.6794 393.748 45.1032C393.414 44.7241 393.002 44.3091 393.117 43.8247C393.607 41.7704 392.45 40.195 391.817 38.4089C389.773 32.6396 388.118 26.7482 387.585 20.607C387.382 18.271 388.522 17.4474 390.813 18.1481C393.247 18.8927 395.652 19.8417 398.142 20.2646C402.113 20.939 406.106 21.7084 410.183 21.3572C410.567 21.3245 410.986 21.3516 411.346 21.4745C412.434 21.8464 413.565 22.3508 413.704 23.6261C413.896 25.3731 413.989 27.1576 413.868 28.9086C413.684 31.5901 412.105 33.7497 410.819 35.9883C409.485 38.3092 407.372 40.3897 408.868 43.4488C408.923 43.5645 408.879 43.7401 408.854 43.8837C408.524 45.8526 407.825 47.5988 406.394 49.0976C405.052 50.5046 403.847 52.0728 402.763 53.6929C401.677 55.3154 401.779 55.3768 403.604 55.9291C403.974 56.0416 404.325 56.238 404.663 56.4327C405.122 56.6968 405.45 56.6889 405.75 56.1749C406.738 54.4806 407.999 52.9148 408.585 51.0289C409.32 48.6602 411.059 46.9204 412.165 44.7927C412.33 44.4743 412.581 44.2636 412.965 44.2261C415.898 43.9396 417.712 46.0928 416.767 48.8845C415.95 51.2995 415.021 53.6833 414.015 56.0257C413.516 57.1893 412.763 58.2595 411.302 58.439C410.962 58.4813 410.531 58.5851 410.537 58.9881C410.544 59.4231 411.027 59.4366 411.339 59.4598C412.884 59.5795 414.111 60.3081 415.222 61.3369C415.978 62.036 416.869 62.348 417.994 61.9474Z" fill="white"/>
<path d="M457.673 33.9608C457.359 34.8921 457.528 35.6303 458.285 36.0988C459.081 36.5904 459.889 36.3789 460.62 35.8642C461.748 35.0717 462.157 33.8834 462.423 32.6C462.52 32.1332 462.653 31.5721 463.295 31.5921C463.792 31.6072 464.287 31.8195 464.558 32.2385C464.862 32.707 464.393 33.0454 464.181 33.4093C463.371 34.8019 462.279 36.0477 461.9 37.6662C461.622 38.853 461.841 39.9168 462.884 40.6766C463.877 41.3996 464.834 41.1131 465.743 40.4994C467.481 39.3262 468.908 37.8689 469.701 35.8817C470.124 34.8219 470.245 33.6471 469.422 32.8179C468.453 31.8427 467.763 30.877 467.769 29.4421C467.771 29.0749 467.397 28.6368 467.088 28.3479C465.806 27.1484 464.28 27.0382 462.702 27.5762C461.174 28.0973 460.29 29.1907 460.156 30.8451C460.093 31.628 460.011 32.4093 459.939 33.1914C459.88 33.8395 459.815 34.5322 459.161 34.8394C458.384 35.2042 458.334 34.1754 457.673 33.9608Z" fill="white"/>
<path d="M381.847 12.82C383.265 12.8448 384.158 11.852 384.032 10.745C383.835 9.02277 386.477 8.24145 385.251 6.3532C385.222 6.30851 385.491 6.07627 385.612 5.92464C386.525 4.777 386.311 4.1122 384.81 3.87757C383.992 3.74988 383.794 3.47614 384.044 2.74111C384.2 2.2862 384.152 1.86242 383.718 1.56953C383.21 1.22715 382.743 1.42588 382.414 1.81534C381.869 2.45939 381.496 2.39953 381.106 1.67966C380.873 1.2511 380.568 0.771453 380.005 0.852857C379.373 0.943838 379.163 1.52484 379.11 2.05875C379.027 2.88875 378.676 2.95419 377.934 2.79458C376.92 2.57511 376.447 3.18643 376.93 4.1569C377.321 4.93901 377.264 5.32528 376.532 5.82089C375.756 6.34682 375.399 7.08743 376.702 7.44098C377.477 7.65088 377.275 7.99485 377.061 8.50083C376.8 9.12093 376.83 9.80568 377.7 9.71231C378.612 9.61415 378.871 10.1608 379.236 10.7538C379.851 11.7554 380.449 12.8104 381.847 12.82Z" fill="white"/>
<path d="M337.753 30.2242C339.31 30.6424 339.937 29.5267 340.442 28.0885C341.175 25.9992 340.4 24.2737 339.361 22.5539C338.415 20.9912 335.865 19.4517 334.493 19.8428C332.485 20.415 332.373 22.1652 332.26 23.8619C332.25 24.008 332.221 24.1532 332.206 24.2993C331.892 27.3511 334.469 30.2266 337.753 30.2242Z" fill="white"/>
<path d="M429.719 11.6881C429.695 11.2834 429.712 10.8836 429.642 10.5013C429.405 9.22519 428.542 8.8493 427.374 9.3465C424.74 10.4678 424.329 12.9434 423.792 15.2802C423.504 16.538 424.33 17.5228 425.457 17.9147C426.531 18.2882 427.392 17.609 428.069 16.7519C429.246 15.261 429.659 13.53 429.719 11.6881Z" fill="white"/>
<path d="M408.655 58.4603C407.164 58.2009 405.716 57.825 404.293 57.3486C404.027 57.2592 403.659 57.3374 403.577 57.679C403.48 58.0804 403.89 58.1506 404.128 58.2217C405.604 58.659 407.097 58.9248 408.655 58.4603Z" fill="white"/>
<path d="M386.926 55.5644C386.751 55.0584 387.019 54.1254 386.062 54.2396C385.491 54.3082 384.385 54.1214 384.441 54.9882C384.502 55.9411 385.588 56.2084 386.42 56.4008C387.024 56.5404 386.878 55.9562 386.926 55.5644ZM417.994 61.9482C416.869 62.3488 415.978 62.036 415.222 61.3369C414.111 60.3081 412.884 59.5795 411.338 59.4606C411.027 59.4366 410.543 59.4239 410.536 58.9873C410.531 58.5859 410.962 58.4805 411.302 58.439C412.763 58.2595 413.516 57.1901 414.015 56.0249C415.021 53.6825 415.949 51.2995 416.767 48.8845C417.712 46.0928 415.898 43.9396 412.964 44.2261C412.581 44.2636 412.33 44.4743 412.164 44.7935C411.059 46.9204 409.32 48.6602 408.585 51.0289C407.999 52.914 406.737 54.4806 405.75 56.1741C405.449 56.6897 405.121 56.696 404.663 56.4327C404.325 56.238 403.974 56.0416 403.604 55.9291C401.779 55.3768 401.677 55.3154 402.763 53.6929C403.847 52.0728 405.052 50.5054 406.395 49.0968C407.824 47.598 408.524 45.8526 408.854 43.8837C408.878 43.7401 408.923 43.5645 408.868 43.4496C407.372 40.3897 409.484 38.3084 410.818 35.9875C412.105 33.7497 413.684 31.5901 413.868 28.9086C413.989 27.1576 413.896 25.3739 413.704 23.6261C413.564 22.3508 412.434 21.8464 411.346 21.4745C410.986 21.3516 410.566 21.3237 410.183 21.3572C406.106 21.7084 402.113 20.9398 398.143 20.2646C395.651 19.8417 393.247 18.8935 390.813 18.1489C388.522 17.4474 387.382 18.271 387.585 20.607C388.118 26.7482 389.772 32.6396 391.817 38.4089C392.45 40.195 393.607 41.7704 393.117 43.8255C393.002 44.3091 393.413 44.7249 393.747 45.1024C395.137 46.6794 395.968 48.5533 396.613 50.5333C396.847 51.2508 396.729 51.5181 395.927 51.7456C394.074 52.2715 392.109 52.0265 390.292 52.6777C389.732 52.878 388.862 52.7974 388.909 53.6937C388.949 54.4694 389.162 55.2635 389.97 55.6777C390.101 55.7439 390.25 55.7815 390.367 55.8661C390.881 56.238 392.068 56.0392 391.881 56.8573C391.739 57.4782 390.625 57.2252 390.004 57.1374C387.915 56.8453 385.941 57.3186 383.94 57.7631C382.308 58.1254 381.997 57.8469 381.779 56.1853C381.677 55.4183 381.686 54.5748 380.466 54.6873C379.396 54.7862 379.068 55.2587 379.113 56.3098C379.196 58.2284 377.569 59.87 375.541 59.8596C374.337 59.8548 373.356 60.1573 372.264 60.7104C369.971 61.8732 367.773 63.3017 365.18 63.8261C364.163 64.0312 363.688 65.0471 362.986 65.7159C362.777 65.9146 362.685 66.2474 362.463 66.4182C361.872 66.8715 361.084 67.079 360.606 66.4877C360.076 65.8308 360.883 65.3584 361.322 65.1573C362.538 64.5978 363.48 63.6377 364.627 63.024C365.772 62.4095 365.768 61.4646 365.581 60.5244C365.311 59.1701 362.444 57.3058 361.066 57.554C360.122 57.724 359.222 57.6513 358.298 57.5237C356.363 57.2555 355.067 58.1613 354.771 60.0927C354.571 61.3919 354.102 62.5204 353.347 63.5906C351.814 65.7614 352.498 68.1931 354.921 69.2602C355.722 69.6129 355.784 70.1381 355.469 70.7973C355.021 71.7342 354.175 72.0933 353.202 72.2043C352.665 72.2665 352.275 72.0135 352.372 71.4653C352.524 70.6041 351.98 70.099 351.574 69.4996C349.588 66.5563 348.597 63.2403 347.838 59.8062C346.948 55.783 345.729 51.8477 344.055 48.076C343.142 46.017 343.214 45.1918 344.811 43.61C345.714 42.7161 346.582 41.7824 347.688 41.1072C349.405 40.0585 351.147 40.2988 352.066 42.0609C353.534 44.8733 355.793 46.8893 358.591 47.9571C363.124 49.6873 365.879 53.0712 368.215 57.0217C368.992 58.3377 369.968 59.3864 371.596 59.5564C372.187 59.6186 372.848 59.712 373.193 59.1094C373.904 57.8652 375.039 57.9498 376.162 58.1031C377.021 58.2196 377.877 58.392 378.323 57.4407C378.774 56.4774 378.603 55.3649 377.957 54.6721C376.395 53.0018 376.499 51.1239 376.952 49.1734C378.03 44.5286 378.949 39.8526 379.567 35.1264C379.825 33.1456 380.468 31.6572 382.524 31.0602C382.954 30.9349 383.472 30.7945 383.761 30.1584C382.848 29.8312 382.056 30.2653 381.271 30.4513C378.586 31.0866 378.167 30.836 377.962 28.0587C377.843 26.4489 377.666 24.8352 377.805 23.2095C377.915 21.9079 377.529 21.2431 375.96 21.1218C373.993 20.9685 372.305 21.2566 370.688 22.3716C369.437 23.2335 368.072 23.9142 366.63 24.4186C365.261 24.8983 364.255 25.8113 363.696 27.1385C363.3 28.0778 362.606 28.7642 361.982 29.5127C361.578 29.9972 360.952 30.2981 360.4 30.0219C357.923 28.7873 356.05 30.4234 354.106 31.3771C352.357 32.2358 350.794 33.4648 349.109 34.4632C348.382 34.8942 348.227 35.5143 348.316 36.2126C348.819 40.1926 345.559 41.4999 343.196 43.369C342.266 44.1048 341.603 43.2093 341.18 42.353C339.864 39.6834 338.914 39.6164 337.147 42.0785C336.516 42.9556 336.002 43.8717 335.67 44.9316C334.855 47.5445 333.488 49.8653 331.605 51.8597C331.209 52.2795 330.764 52.8349 330.11 52.4806C329.503 52.1518 329.84 51.5381 329.871 51.0137C329.971 49.3402 330.796 47.9284 331.411 46.4344C333.168 42.1623 335.068 37.966 337.469 34.0075C337.883 33.326 338.428 33.0873 339.12 32.9573C340.22 32.7498 341.069 32.1073 341.39 31.0754C342.472 27.5998 343.811 28.1855 347.048 28.0842C348.603 28.0363 350.165 28.3763 351.727 28.417C353.044 28.4513 354.339 28.2717 355.577 27.674C357.162 26.9094 358.896 26.5351 360.556 25.9876C363.13 25.1385 365.627 23.9589 367.822 22.267C370.961 19.8456 374.128 17.4586 377.249 15.0125C378.494 14.038 379.841 13.6637 381.371 13.9534C383.101 14.2807 384.691 14.07 386.01 12.7994C386.608 12.224 387.134 12.1881 387.804 12.7228C390.722 15.0508 394.068 16.5025 397.639 17.4945C399.149 17.9135 400.631 18.4323 401.961 19.3061C402.647 19.7571 403.357 19.9366 404.182 19.5919C405.164 19.1816 406.257 19.2327 407.231 19.441C411.216 20.2934 414.893 19.0883 418.557 17.8616C420.087 17.3493 421.223 17.5224 422.394 18.7044C423.469 19.7906 424.803 20.5432 426.501 20.0771C427.59 19.7786 428.443 20.1992 429.228 21.0452C432.221 24.2742 434.387 28.0746 436.702 31.7729C437.348 32.8032 437.774 34.0187 439.419 33.5327C439.777 33.4265 440.273 33.6763 440.673 33.8439C445.924 36.041 451.612 36.3363 457.071 37.6244C458.778 38.0266 460.202 38.5941 460.875 40.4296C461.188 41.2844 462.133 41.6483 462.962 41.9284C464.886 42.5773 465.657 43.8079 466.031 45.8893C466.779 50.0433 467.333 54.2292 468.121 58.3752C468.28 59.2076 468.291 60.036 468.046 60.8556C467.961 61.1421 467.859 61.4358 467.51 61.4781C467.16 61.5212 466.987 61.2746 466.854 60.9977C466.663 60.6002 466.434 60.2148 466.293 59.7998C465.185 56.5787 463.606 53.5835 461.943 50.6291C461.212 49.3298 459.904 49.2675 458.918 50.4591C457.951 51.6299 456.959 52.7807 455.97 53.9339C455.78 54.1566 455.591 54.4678 455.343 54.5412C452.476 55.4016 451.819 58.1366 450.537 60.2962C449.06 62.787 447.626 65.3025 446.079 67.7526C444.864 69.6752 444.095 71.7861 443.642 74.0295C443.27 75.8675 442.651 76.0694 441.186 74.8802C440.275 74.1404 439.469 73.2721 438.591 72.4892C438.054 72.0111 437.538 71.8036 437.079 72.6592C436.571 73.6025 435.649 73.581 434.749 73.466C434.213 73.3982 433.643 73.2905 433.416 72.7063C433.168 72.067 433.755 71.9066 434.107 71.5866C434.622 71.1181 435.157 70.4876 434.734 69.8093C434.261 69.0519 433.383 68.6848 432.509 68.5188C432.09 68.4398 432.038 68.9497 431.915 69.2474C431.53 70.182 430.86 70.2721 429.991 70.0112C428.723 69.6313 427.813 68.7167 426.804 67.9505C426.567 67.7718 426.389 67.498 426.583 67.1828C426.772 66.8755 427.075 66.9178 427.37 66.9912C427.703 67.0734 428.033 67.17 428.368 67.241C428.835 67.3392 429.385 67.6281 429.742 67.1684C430.157 66.6337 429.904 65.9825 429.577 65.5156C429.189 64.9625 428.621 64.5396 428.144 64.0471C427.184 63.0543 427.346 62.0703 428.674 61.763C430.185 61.4143 431.248 60.443 432.467 59.6314C436.138 57.1869 440.012 55.0831 444.049 53.3154C445.501 52.6793 447.036 53.388 448.532 53.5668C449.226 53.6498 450.315 54.222 450.553 53.582C450.863 52.752 449.584 52.6059 449.064 52.0887C448.931 51.9571 448.716 51.9124 448.545 51.8174C446.527 50.6929 446.421 50.0313 448.073 48.42C449.091 47.4288 450.1 46.4072 451.235 45.5645C452.279 44.7903 452.616 43.7121 452.994 42.5964C453.172 42.0713 452.977 41.7792 452.534 41.519C449.877 39.9524 447.229 38.369 444.576 36.7928C443.708 36.2773 442.748 35.966 441.763 36.1408C439.122 36.6092 437.54 35.219 436.194 33.211C433.637 29.3946 431.054 29.3579 426.999 30.5056C425.997 30.7881 425.551 31.4577 425.617 32.4744C425.742 34.4209 425.108 36.1376 424.084 37.7449C423.98 37.9093 423.817 38.104 423.836 38.2677C424.097 40.6012 422.652 42.598 422.569 44.863C422.525 46.0473 421.965 46.8637 420.698 46.8661C419.315 46.8693 418.777 47.6474 418.389 48.8565C417.388 51.9762 416.546 55.139 415.72 58.305C415.304 59.9003 415.916 60.9682 417.504 61.4558C417.636 61.4965 417.752 61.6002 417.869 61.684C417.901 61.7072 417.909 61.7646 417.994 61.9482Z" fill="white"/>
<path d="M457.673 33.9608C458.334 34.1754 458.384 35.2042 459.161 34.8394C459.815 34.5322 459.88 33.8395 459.939 33.1914C460.011 32.4093 460.093 31.628 460.156 30.8451C460.29 29.1907 461.174 28.0973 462.702 27.5762C464.28 27.0382 465.806 27.1484 467.088 28.3479C467.397 28.6368 467.771 29.0749 467.769 29.4421C467.763 30.877 468.453 31.8427 469.422 32.8179C470.245 33.6471 470.124 34.8219 469.701 35.8817C468.908 37.8689 467.481 39.3262 465.743 40.4994C464.834 41.1131 463.877 41.3996 462.884 40.6766C461.841 39.9168 461.622 38.853 461.9 37.6662C462.279 36.0477 463.371 34.8019 464.181 33.4093C464.393 33.0454 464.862 32.707 464.558 32.2385C464.287 31.8195 463.792 31.6072 463.295 31.5921C462.653 31.5721 462.52 32.1332 462.423 32.6C462.157 33.8834 461.748 35.0717 460.62 35.8642C459.889 36.3789 459.081 36.5904 458.285 36.0988C457.528 35.6303 457.359 34.8921 457.673 33.9608Z" fill="white"/>
<path d="M381.847 12.82C380.449 12.8104 379.851 11.7554 379.236 10.7538C378.871 10.1608 378.612 9.61415 377.7 9.71231C376.83 9.80568 376.8 9.12093 377.061 8.50083C377.275 7.99485 377.477 7.65088 376.702 7.44098C375.399 7.08743 375.756 6.34682 376.532 5.82089C377.264 5.32528 377.321 4.93901 376.93 4.1569C376.447 3.18643 376.92 2.57511 377.934 2.79458C378.676 2.95419 379.027 2.88875 379.11 2.05875C379.163 1.52484 379.373 0.943838 380.005 0.852857C380.568 0.771453 380.873 1.2511 381.106 1.67966C381.496 2.39953 381.869 2.45939 382.414 1.81534C382.743 1.42588 383.21 1.22715 383.718 1.56953C384.152 1.86242 384.2 2.2862 384.044 2.74111C383.794 3.47614 383.992 3.74988 384.81 3.87757C386.311 4.1122 386.525 4.777 385.612 5.92464C385.491 6.07627 385.222 6.30851 385.251 6.3532C386.477 8.24145 383.835 9.02277 384.032 10.745C384.158 11.852 383.265 12.8448 381.847 12.82Z" fill="white"/>
<path d="M337.753 30.2242C334.469 30.2266 331.892 27.3511 332.206 24.2993C332.221 24.1532 332.25 24.008 332.26 23.8619C332.373 22.1652 332.485 20.415 334.493 19.8428C335.865 19.4517 338.415 20.9912 339.361 22.5539C340.4 24.2737 341.175 25.9992 340.442 28.0885C339.937 29.5267 339.31 30.6424 337.753 30.2242Z" fill="white"/>
<path d="M429.719 11.6881C429.659 13.53 429.246 15.261 428.069 16.7519C427.392 17.609 426.531 18.2882 425.457 17.9147C424.33 17.5228 423.504 16.538 423.792 15.2802C424.329 12.9434 424.74 10.4678 427.374 9.3465C428.542 8.8493 429.405 9.22519 429.642 10.5013C429.712 10.8836 429.695 11.2834 429.719 11.6881Z" fill="white"/>
<path d="M408.655 58.4603C407.097 58.9248 405.604 58.659 404.128 58.2217C403.89 58.1506 403.48 58.0804 403.577 57.679C403.659 57.3374 404.027 57.2592 404.293 57.3486C405.716 57.825 407.164 58.2009 408.655 58.4603Z" fill="white"/>
<path d="M386.924 55.5629C386.876 55.9548 387.023 56.539 386.418 56.3993C385.586 56.207 384.501 55.9396 384.44 54.9867C384.383 54.12 385.49 54.3067 386.061 54.2381C387.017 54.124 386.749 55.0569 386.924 55.5629Z" fill="white"/>
<path d="M224.302 51.9011C226.676 51.5556 229.17 51.8524 231.571 51.7894C231.597 55.1293 231.597 58.4733 231.571 61.8132C229.113 61.8483 226.652 61.8483 224.196 61.8132C224.161 59.4142 224.198 57.0144 224.152 54.6154C224.152 53.7231 224.111 52.7758 224.302 51.9011Z" fill="white"/>
</svg>
