<svg width="34" height="34" viewBox="0 0 34 34" fill="none" xmlns="http://www.w3.org/2000/svg">
<path d="M32.5807 4.25057C31.2241 5.2075 29.722 5.9394 28.1324 6.41807C27.2792 5.43705 26.1453 4.74172 24.884 4.42614C23.6228 4.11055 22.295 4.18993 21.0803 4.65355C19.8657 5.11716 18.8227 5.94264 18.0925 7.01834C17.3622 8.09404 16.98 9.36805 16.9974 10.6681V12.0847C14.5078 12.1493 12.0409 11.5971 9.81632 10.4775C7.59178 9.35777 5.67868 7.70531 4.2474 5.66724C4.2474 5.66724 -1.41927 18.4172 11.3307 24.0839C8.41314 26.0644 4.93753 27.0574 1.41406 26.9172C14.1641 34.0006 29.7474 26.9172 29.7474 10.6256C29.7461 10.231 29.7081 9.83733 29.6341 9.44974C31.0799 8.02386 32.1002 6.22358 32.5807 4.25057Z" fill="white" fill-opacity="0.5"/>
</svg>
